<svg xmlns="http://www.w3.org/2000/svg" xmlns:xlink="http://www.w3.org/1999/xlink" version="1.1" x="0px" y="0px" viewBox="0 0 147.3 191.5" style="enable-background:new 0 0 147.3 153.2;" xml:space="preserve"><g><path d="M86.1,87.4c-0.2,0.4-3.9,9.4-13,9.4c-9.2,0-11.4-9.4-11.4-9.5c0-0.1,0-0.2,0-0.3c-4.2,0.3-7.8,0.6-9.5,0.8   c2.1,3.4,9.7,14,22.2,14c0.1,0,0.3,0,0.4,0c12.7-0.2,20.4-10.7,22.6-14c-2-0.2-6.3-0.6-11.2-0.9C86.2,87.1,86.2,87.2,86.1,87.4z"/><path d="M73.5,92.3c-5,0-6.6-4.4-7-5.6c-1.1,0-2.2,0.1-3.2,0.2c0,0,0,0,0,0c0.1,0.3,2,8.3,9.9,8.3c8,0,11.5-8.3,11.5-8.4   c0,0,0,0,0,0c-1-0.1-2.1-0.1-3.2-0.2C81,87.7,78.6,92.3,73.5,92.3z"/><path d="M95.1,86c-4.5-2.4-13-6.4-20.2-6.4c-8.2,0-16.5,4-20.7,6.4c4.7-0.4,13.3-1.1,20.6-1.1C81.9,84.9,90.4,85.6,95.1,86z"/><path d="M128,34.6c-6-3.4-18.9,36.5-24.1,33.5c-5.2-3,8.2-52.8,0.9-54.1c-5.1-0.9-13.3,44.7-18.5,44.7S91,1.5,82.1,1.5   c-8.9,0-8.9,58-15.5,59.3c-5.1,1-1.8-49.4-10.7-49c-8.9,0.4-2,55-6,58.8c-4.1,3.9-24.1-30.9-32.6-24.1c-2.6,1.3,4.3,11.2,7.3,16.8   S33.6,78.4,37.1,87c3.4,8.6,4.7,16.7,4.7,33.9c0,17.2,9.5,26.6,17.2,28.8c1.3,0.4,15.1,4,21.9,0c6.6-3.9,10.9-6.6,15.9-18.2   c6.3-14.5,8.8-24.8,10.6-29.9c2.1-6.1,6-18.8,7.9-25.1C116.6,71.6,135.2,38.7,128,34.6z M48.4,106.9l-1.2-1.1l5-5.3l1.2,1.1   L48.4,106.9z M55.5,111.2l-1.4-0.8l3.6-6.1l1.4,0.8L55.5,111.2z M64.2,114.2l-1.5-0.5l2.1-7l1.5,0.5L64.2,114.2z M74,114.9h-1.6   v-7.1H74V114.9z M83,113.9l-2.1-7l1.5-0.5l2.1,7L83,113.9z M91.7,110.9l-3.6-6.1l1.4-0.8l3.6,6.1L91.7,110.9z M74.8,103.4   c-0.1,0-0.3,0-0.4,0c-15.8,0-24.1-15.7-24.2-15.9l-0.3-0.6l0.6-0.4c0.5-0.3,12.4-8.4,24.5-8.4l0,0c10.7,0,23.6,8.1,24.2,8.4   l0.6,0.4l-0.3,0.6C99.3,87.7,90.8,103.1,74.8,103.4z M98.7,106.7l-5-5.3l1.2-1.1l5,5.3L98.7,106.7z"/></g><text x="0" y="168.2" fill="#000000" font-size="5px" font-weight="bold" font-family="'Helvetica Neue', Helvetica, Arial-Unicode, Arial, Sans-serif">Created by Johanna Vargas Sanchez</text><text x="0" y="173.2" fill="#000000" font-size="5px" font-weight="bold" font-family="'Helvetica Neue', Helvetica, Arial-Unicode, Arial, Sans-serif">from the Noun Project</text></svg>